<svg xmlns="http://www.w3.org/2000/svg" xmlns:xlink="http://www.w3.org/1999/xlink" xml:lang="en" height="112.7pt" width="246.188pt" viewBox="-241.58799999999997 -22.6 246.188 112.7"><circle cx="-168.3" cy="-0" r="4.32" style="stroke:black;fill:none;stroke-width:2.0;stroke-dasharray:-;" /><circle cx="-80.28" cy="67.5" r="4.32" style="stroke:black;fill:none;stroke-width:2.0;stroke-dasharray:-;" /><circle cx="-168.3" cy="54" r="4.32" style="stroke:black;fill:none;stroke-width:2.0;stroke-dasharray:-;" /><path d="M -55.80000000000001,58.14000000000001 L -37.8,58.14 L -37.286,58.133 L -36.771,58.111 L -36.257,58.074 L -35.743,58.022 L -35.229,57.956 L -34.714,57.876 L -34.2,57.78 L -33.686,57.67 L -33.171,57.545 L -32.657,57.405 L -32.143,57.251 L -31.629,57.082 L -31.114,56.898 L -30.6,56.7 L -30.086,56.487 L -29.571,56.259 L -29.057,56.017 L -28.543,55.76 L -28.029,55.488 L -27.514,55.201 L -27,54.9 L -26.486,54.584 L -25.971,54.253 L -25.457,53.908 L -24.943,53.548 L -24.429,53.173 L -23.914,52.784 L -23.4,52.38 L -22.886,51.961 L -22.371,51.528 L -21.857,51.08 L -21.343,50.617 L -20.829,50.139 L -20.314,49.647 L -19.8,49.14 L -19.286,48.618 L -18.771,48.082 L -18.257,47.531 L -17.743,46.965 L -17.229,46.385 L -16.714,45.79 L -16.2,45.18 L -15.686,44.556 L -15.171,43.916 L -14.657,43.262 L -14.143,42.594 L -13.629,41.911 L -13.114,41.213 L -12.6,40.5 L -12.6,40.5 L -13.114,39.787 L -13.629,39.089 L -14.143,38.406 L -14.657,37.738 L -15.171,37.084 L -15.686,36.444 L -16.2,35.82 L -16.714,35.21 L -17.229,34.615 L -17.743,34.035 L -18.257,33.469 L -18.771,32.918 L -19.286,32.382 L -19.8,31.86 L -20.314,31.353 L -20.829,30.861 L -21.343,30.383 L -21.857,29.92 L -22.371,29.472 L -22.886,29.039 L -23.4,28.62 L -23.914,28.216 L -24.429,27.827 L -24.943,27.452 L -25.457,27.092 L -25.971,26.747 L -26.486,26.416 L -27,26.1 L -27.514,25.799 L -28.029,25.512 L -28.543,25.24 L -29.057,24.983 L -29.571,24.741 L -30.086,24.513 L -30.6,24.3 L -31.114,24.102 L -31.629,23.918 L -32.143,23.749 L -32.657,23.595 L -33.171,23.455 L -33.686,23.33 L -34.2,23.22 L -34.714,23.124 L -35.229,23.044 L -35.743,22.978 L -36.257,22.926 L -36.771,22.889 L -37.286,22.867 L -37.8,22.86 L -55.8,22.86 L -55.8,22.86 L -55.109,23.58 L -54.446,24.3 L -53.813,25.02 L -53.208,25.74 L -52.632,26.46 L -52.085,27.18 L -51.566,27.9 L -51.077,28.62 L -50.616,29.34 L -50.184,30.06 L -49.781,30.78 L -49.406,31.5 L -49.061,32.22 L -48.744,32.94 L -48.456,33.66 L -48.197,34.38 L -47.966,35.1 L -47.765,35.82 L -47.592,36.54 L -47.448,37.26 L -47.333,37.98 L -47.246,38.7 L -47.189,39.42 L -47.16,40.14 L -47.16,40.86 L -47.189,41.58 L -47.246,42.3 L -47.333,43.02 L -47.448,43.74 L -47.592,44.46 L -47.765,45.18 L -47.966,45.9 L -48.197,46.62 L -48.456,47.34 L -48.744,48.06 L -49.061,48.78 L -49.406,49.5 L -49.781,50.22 L -50.184,50.94 L -50.616,51.66 L -51.077,52.38 L -51.566,53.1 L -52.085,53.82 L -52.632,54.54 L -53.208,55.26 L -53.813,55.98 L -54.446,56.7 L -55.109,57.42 L -55.8,58.14" style="stroke:black;fill:none;stroke-width:2.0;stroke-dasharray:-;stroke-linecap:round;stroke-linejoin:round;" /><path d="M -68.4,49.5 L -49.406,49.5" style="stroke:black;fill:none;stroke-width:2.0;stroke-dasharray:-;stroke-linecap:round;stroke-linejoin:round;" /><path d="M -68.4,31.5 L -49.406,31.5" style="stroke:black;fill:none;stroke-width:2.0;stroke-dasharray:-;stroke-linecap:round;stroke-linejoin:round;" /><path d="M -12.600000000000003,40.5 L 0,40.5" style="stroke:black;fill:none;stroke-width:2.0;stroke-dasharray:-;stroke-linecap:round;stroke-linejoin:round;" /><path d="M -127.80000000000001,31.140000000000004 L -109.8,31.14 L -109.286,31.133 L -108.771,31.111 L -108.257,31.074 L -107.743,31.022 L -107.229,30.956 L -106.714,30.876 L -106.2,30.78 L -105.686,30.67 L -105.171,30.545 L -104.657,30.405 L -104.143,30.251 L -103.629,30.082 L -103.114,29.898 L -102.6,29.7 L -102.086,29.487 L -101.571,29.259 L -101.057,29.017 L -100.543,28.76 L -100.029,28.488 L -99.514,28.201 L -99,27.9 L -98.486,27.584 L -97.971,27.253 L -97.457,26.908 L -96.943,26.548 L -96.429,26.173 L -95.914,25.784 L -95.4,25.38 L -94.886,24.961 L -94.371,24.528 L -93.857,24.08 L -93.343,23.617 L -92.829,23.139 L -92.314,22.647 L -91.8,22.14 L -91.286,21.618 L -90.771,21.082 L -90.257,20.531 L -89.743,19.965 L -89.229,19.385 L -88.714,18.79 L -88.2,18.18 L -87.686,17.556 L -87.171,16.916 L -86.657,16.262 L -86.143,15.594 L -85.629,14.911 L -85.114,14.213 L -84.6,13.5 L -84.6,13.5 L -85.114,12.787 L -85.629,12.089 L -86.143,11.406 L -86.657,10.738 L -87.171,10.084 L -87.686,9.444 L -88.2,8.82 L -88.714,8.21 L -89.229,7.615 L -89.743,7.035 L -90.257,6.469 L -90.771,5.918 L -91.286,5.382 L -91.8,4.86 L -92.314,4.353 L -92.829,3.861 L -93.343,3.383 L -93.857,2.92 L -94.371,2.472 L -94.886,2.039 L -95.4,1.62 L -95.914,1.216 L -96.429,0.827 L -96.943,0.452 L -97.457,0.092 L -97.971,-0.253 L -98.486,-0.584 L -99,-0.9 L -99.514,-1.201 L -100.029,-1.488 L -100.543,-1.76 L -101.057,-2.017 L -101.571,-2.259 L -102.086,-2.487 L -102.6,-2.7 L -103.114,-2.898 L -103.629,-3.082 L -104.143,-3.251 L -104.657,-3.405 L -105.171,-3.545 L -105.686,-3.67 L -106.2,-3.78 L -106.714,-3.876 L -107.229,-3.956 L -107.743,-4.022 L -108.257,-4.074 L -108.771,-4.111 L -109.286,-4.133 L -109.8,-4.14 L -127.8,-4.14 L -127.8,-4.14 L -127.109,-3.42 L -126.446,-2.7 L -125.813,-1.98 L -125.208,-1.26 L -124.632,-0.54 L -124.085,0.18 L -123.566,0.9 L -123.077,1.62 L -122.616,2.34 L -122.184,3.06 L -121.781,3.78 L -121.406,4.5 L -121.061,5.22 L -120.744,5.94 L -120.456,6.66 L -120.197,7.38 L -119.966,8.1 L -119.765,8.82 L -119.592,9.54 L -119.448,10.26 L -119.333,10.98 L -119.246,11.7 L -119.189,12.42 L -119.16,13.14 L -119.16,13.86 L -119.189,14.58 L -119.246,15.3 L -119.333,16.02 L -119.448,16.74 L -119.592,17.46 L -119.765,18.18 L -119.966,18.9 L -120.197,19.62 L -120.456,20.34 L -120.744,21.06 L -121.061,21.78 L -121.406,22.5 L -121.781,23.22 L -122.184,23.94 L -122.616,24.66 L -123.077,25.38 L -123.566,26.1 L -124.085,26.82 L -124.632,27.54 L -125.208,28.26 L -125.813,28.98 L -126.446,29.7 L -127.109,30.42 L -127.8,31.14" style="stroke:black;fill:none;stroke-width:2.0;stroke-dasharray:-;stroke-linecap:round;stroke-linejoin:round;" /><path d="M -133.20000000000002,31.140000000000004 L -132.509,30.42 L -131.846,29.7 L -131.213,28.98 L -130.608,28.26 L -130.032,27.54 L -129.485,26.82 L -128.966,26.1 L -128.477,25.38 L -128.016,24.66 L -127.584,23.94 L -127.181,23.22 L -126.806,22.5 L -126.461,21.78 L -126.144,21.06 L -125.856,20.34 L -125.597,19.62 L -125.366,18.9 L -125.165,18.18 L -124.992,17.46 L -124.848,16.74 L -124.733,16.02 L -124.646,15.3 L -124.589,14.58 L -124.56,13.86 L -124.56,13.14 L -124.589,12.42 L -124.646,11.7 L -124.733,10.98 L -124.848,10.26 L -124.992,9.54 L -125.165,8.82 L -125.366,8.1 L -125.597,7.38 L -125.856,6.66 L -126.144,5.94 L -126.461,5.22 L -126.806,4.5 L -127.181,3.78 L -127.584,3.06 L -128.016,2.34 L -128.477,1.62 L -128.966,0.9 L -129.485,0.18 L -130.032,-0.54 L -130.608,-1.26 L -131.213,-1.98 L -131.846,-2.7 L -132.509,-3.42 L -133.2,-4.14" style="stroke:black;fill:none;stroke-width:2.0;stroke-dasharray:-;stroke-linecap:round;stroke-linejoin:round;" /><path d="M -140.4,22.5 L -126.806,22.5" style="stroke:black;fill:none;stroke-width:2.0;stroke-dasharray:-;stroke-linecap:round;stroke-linejoin:round;" /><path d="M -140.4,4.5 L -126.806,4.5" style="stroke:black;fill:none;stroke-width:2.0;stroke-dasharray:-;stroke-linecap:round;stroke-linejoin:round;" /><path d="M -84.60000000000001,13.5 L -72,13.5" style="stroke:black;fill:none;stroke-width:2.0;stroke-dasharray:-;stroke-linecap:round;stroke-linejoin:round;" /><path d="M -216.0,-0.0 L -216,-0 L -196.02,-0 M -163.98,-0 L -144,-0 L -144,-0" style="stroke:black;fill:none;stroke-width:2.0;stroke-dasharray:-;stroke-linecap:round;stroke-linejoin:round;" /><path d="M -196.02,-18.0 L -172.62,-0 L -196.02,18 L -196.02,-18" style="stroke:black;fill:none;stroke-width:2.0;stroke-dasharray:-;stroke-linecap:round;stroke-linejoin:round;" /><path d="M -140.4,4.5 L -144,4.5 L -144,-0" style="stroke:black;fill:none;stroke-width:2.0;stroke-dasharray:-;stroke-linecap:round;stroke-linejoin:round;" /><path d="M -140.4,4.5 L -144,4.5 L -144,-0" style="stroke:black;fill:none;stroke-width:2.0;stroke-dasharray:-;stroke-linecap:round;stroke-linejoin:round;" /><path d="M -68.4,31.5 L -72,31.5 L -72,13.5" style="stroke:black;fill:none;stroke-width:2.0;stroke-dasharray:-;stroke-linecap:round;stroke-linejoin:round;" /><path d="M -68.4,31.5 L -72,31.5 L -72,13.5" style="stroke:black;fill:none;stroke-width:2.0;stroke-dasharray:-;stroke-linecap:round;stroke-linejoin:round;" /><path d="M -102.60000000000001,85.5 L -101.447,85.463 L -100.298,85.352 L -99.159,85.168 L -98.034,84.911 L -96.928,84.583 L -95.845,84.185 L -94.79,83.717 L -93.767,83.184 L -92.78,82.586 L -91.834,81.925 L -90.932,81.206 L -90.078,80.43 L -89.275,79.601 L -88.527,78.723 L -87.837,77.798 L -87.207,76.831 L -86.641,75.826 L -86.141,74.786 L -85.708,73.717 L -85.344,72.621 L -85.051,71.505 L -84.831,70.373 L -84.683,69.228 L -84.609,68.077 L -84.609,66.923 L -84.683,65.772 L -84.831,64.627 L -85.051,63.495 L -85.344,62.379 L -85.708,61.283 L -86.141,60.214 L -86.641,59.174 L -87.207,58.169 L -87.837,57.202 L -88.527,56.277 L -89.275,55.399 L -90.078,54.57 L -90.932,53.794 L -91.834,53.075 L -92.78,52.414 L -93.767,51.816 L -94.79,51.283 L -95.845,50.815 L -96.928,50.417 L -98.034,50.089 L -99.159,49.832 L -100.298,49.648 L -101.447,49.537 L -102.6,49.5 L -102.6,49.5 L -126,49.5 L -126,67.5 L -126,85.5 L -102.6,85.5" style="stroke:black;fill:none;stroke-width:2.0;stroke-dasharray:-;stroke-linecap:round;stroke-linejoin:round;" /><path d="M -138.6,76.5 L -126,76.5" style="stroke:black;fill:none;stroke-width:2.0;stroke-dasharray:-;stroke-linecap:round;stroke-linejoin:round;" /><path d="M -138.6,58.5 L -126,58.5" style="stroke:black;fill:none;stroke-width:2.0;stroke-dasharray:-;stroke-linecap:round;stroke-linejoin:round;" /><path d="M -75.96000000000001,67.5 L -72,67.5" style="stroke:black;fill:none;stroke-width:2.0;stroke-dasharray:-;stroke-linecap:round;stroke-linejoin:round;" /><path d="M -216.0,54.0 L -216,54 L -196.02,54 M -163.98,54 L -144,54 L -144,54" style="stroke:black;fill:none;stroke-width:2.0;stroke-dasharray:-;stroke-linecap:round;stroke-linejoin:round;" /><path d="M -196.02,36.0 L -172.62,54 L -196.02,72 L -196.02,36" style="stroke:black;fill:none;stroke-width:2.0;stroke-dasharray:-;stroke-linecap:round;stroke-linejoin:round;" /><path d="M -138.6,58.5 L -144,58.5 L -144,54" style="stroke:black;fill:none;stroke-width:2.0;stroke-dasharray:-;stroke-linecap:round;stroke-linejoin:round;" /><path d="M -138.6,58.5 L -144,58.5 L -144,54" style="stroke:black;fill:none;stroke-width:2.0;stroke-dasharray:-;stroke-linecap:round;stroke-linejoin:round;" /><path d="M -68.4,49.5 L -72,49.5 L -72,67.5" style="stroke:black;fill:none;stroke-width:2.0;stroke-dasharray:-;stroke-linecap:round;stroke-linejoin:round;" /><path d="M -68.4,49.5 L -72,49.5 L -72,67.5" style="stroke:black;fill:none;stroke-width:2.0;stroke-dasharray:-;stroke-linecap:round;stroke-linejoin:round;" /><text x="-144.0" y="8.5" dominant-baseline="central" fill="black" font-size="14.0" font-family="sans" text-anchor="end"><tspan x="-144.0" dy="14.0">V2</tspan></text><text x="-144.0" y="8.5" dominant-baseline="central" fill="black" font-size="14.0" font-family="sans" text-anchor="end"><tspan x="-144.0" dy="14.0">V2</tspan></text><text x="-219.6" y="-14.0" dominant-baseline="central" fill="black" font-size="14.0" font-family="sans" text-anchor="end"><tspan x="-219.6" dy="14.0">V1</tspan></text><text x="-219.6" y="-14.0" dominant-baseline="central" fill="black" font-size="14.0" font-family="sans" text-anchor="end"><tspan x="-219.6" dy="14.0">V1</tspan></text><text x="-142.20000000000002" y="62.5" dominant-baseline="central" fill="black" font-size="14.0" font-family="sans" text-anchor="end"><tspan x="-142.20000000000002" dy="14.0">V3</tspan></text><text x="-142.20000000000002" y="62.5" dominant-baseline="central" fill="black" font-size="14.0" font-family="sans" text-anchor="end"><tspan x="-142.20000000000002" dy="14.0">V3</tspan></text><text x="-219.6" y="40.0" dominant-baseline="central" fill="black" font-size="14.0" font-family="sans" text-anchor="end"><tspan x="-219.6" dy="14.0">V4</tspan></text><text x="-219.6" y="40.0" dominant-baseline="central" fill="black" font-size="14.0" font-family="sans" text-anchor="end"><tspan x="-219.6" dy="14.0">V4</tspan></text></svg>