<svg xmlns="http://www.w3.org/2000/svg" xmlns:xlink="http://www.w3.org/1999/xlink" xml:lang="en" height="85.34pt" width="174.188pt" viewBox="-169.58799999999997 -22.6 174.188 85.34"><circle cx="-8.28" cy="20.25" r="4.32" style="stroke:black;fill:none;stroke-width:2.0;stroke-dasharray:-;" /><circle cx="-96.3" cy="-0" r="4.32" style="stroke:black;fill:none;stroke-width:2.0;stroke-dasharray:-;" /><path d="M -30.6,38.25 L -29.447,38.213 L -28.298,38.102 L -27.159,37.918 L -26.034,37.661 L -24.928,37.333 L -23.845,36.935 L -22.79,36.467 L -21.767,35.934 L -20.78,35.336 L -19.834,34.675 L -18.932,33.956 L -18.078,33.18 L -17.275,32.351 L -16.527,31.473 L -15.837,30.548 L -15.207,29.581 L -14.641,28.576 L -14.141,27.536 L -13.708,26.467 L -13.344,25.371 L -13.051,24.255 L -12.831,23.123 L -12.683,21.978 L -12.609,20.827 L -12.609,19.673 L -12.683,18.522 L -12.831,17.377 L -13.051,16.245 L -13.344,15.129 L -13.708,14.033 L -14.141,12.964 L -14.641,11.924 L -15.207,10.919 L -15.837,9.952 L -16.527,9.027 L -17.275,8.149 L -18.078,7.32 L -18.932,6.544 L -19.834,5.825 L -20.78,5.164 L -21.767,4.566 L -22.79,4.033 L -23.845,3.565 L -24.928,3.167 L -26.034,2.839 L -27.159,2.582 L -28.298,2.398 L -29.447,2.287 L -30.6,2.25 L -30.6,2.25 L -54,2.25 L -54,20.25 L -54,38.25 L -30.6,38.25" style="stroke:black;fill:none;stroke-width:2.0;stroke-dasharray:-;stroke-linecap:round;stroke-linejoin:round;" /><path d="M -66.60000000000001,29.25 L -54,29.25" style="stroke:black;fill:none;stroke-width:2.0;stroke-dasharray:-;stroke-linecap:round;stroke-linejoin:round;" /><path d="M -66.60000000000001,11.25 L -54,11.25" style="stroke:black;fill:none;stroke-width:2.0;stroke-dasharray:-;stroke-linecap:round;stroke-linejoin:round;" /><path d="M -3.9600000000000035,20.25 L 0,20.25" style="stroke:black;fill:none;stroke-width:2.0;stroke-dasharray:-;stroke-linecap:round;stroke-linejoin:round;" /><path d="M -144.0,-0.0 L -144,-0 L -124.02,-0 M -91.98,-0 L -72,-0 L -72,-0" style="stroke:black;fill:none;stroke-width:2.0;stroke-dasharray:-;stroke-linecap:round;stroke-linejoin:round;" /><path d="M -124.02,-18.0 L -100.62,-0 L -124.02,18 L -124.02,-18" style="stroke:black;fill:none;stroke-width:2.0;stroke-dasharray:-;stroke-linecap:round;stroke-linejoin:round;" /><path d="M -66.60000000000001,11.25 L -72,11.25 L -72,-0" style="stroke:black;fill:none;stroke-width:2.0;stroke-dasharray:-;stroke-linecap:round;stroke-linejoin:round;" /><path d="M -66.60000000000001,11.25 L -72,11.25 L -72,-0" style="stroke:black;fill:none;stroke-width:2.0;stroke-dasharray:-;stroke-linecap:round;stroke-linejoin:round;" /><path d="M -127.80000000000001,58.14000000000001 L -109.8,58.14 L -109.286,58.133 L -108.771,58.111 L -108.257,58.074 L -107.743,58.022 L -107.229,57.956 L -106.714,57.876 L -106.2,57.78 L -105.686,57.67 L -105.171,57.545 L -104.657,57.405 L -104.143,57.251 L -103.629,57.082 L -103.114,56.898 L -102.6,56.7 L -102.086,56.487 L -101.571,56.259 L -101.057,56.017 L -100.543,55.76 L -100.029,55.488 L -99.514,55.201 L -99,54.9 L -98.486,54.584 L -97.971,54.253 L -97.457,53.908 L -96.943,53.548 L -96.429,53.173 L -95.914,52.784 L -95.4,52.38 L -94.886,51.961 L -94.371,51.528 L -93.857,51.08 L -93.343,50.617 L -92.829,50.139 L -92.314,49.647 L -91.8,49.14 L -91.286,48.618 L -90.771,48.082 L -90.257,47.531 L -89.743,46.965 L -89.229,46.385 L -88.714,45.79 L -88.2,45.18 L -87.686,44.556 L -87.171,43.916 L -86.657,43.262 L -86.143,42.594 L -85.629,41.911 L -85.114,41.213 L -84.6,40.5 L -84.6,40.5 L -85.114,39.787 L -85.629,39.089 L -86.143,38.406 L -86.657,37.738 L -87.171,37.084 L -87.686,36.444 L -88.2,35.82 L -88.714,35.21 L -89.229,34.615 L -89.743,34.035 L -90.257,33.469 L -90.771,32.918 L -91.286,32.382 L -91.8,31.86 L -92.314,31.353 L -92.829,30.861 L -93.343,30.383 L -93.857,29.92 L -94.371,29.472 L -94.886,29.039 L -95.4,28.62 L -95.914,28.216 L -96.429,27.827 L -96.943,27.452 L -97.457,27.092 L -97.971,26.747 L -98.486,26.416 L -99,26.1 L -99.514,25.799 L -100.029,25.512 L -100.543,25.24 L -101.057,24.983 L -101.571,24.741 L -102.086,24.513 L -102.6,24.3 L -103.114,24.102 L -103.629,23.918 L -104.143,23.749 L -104.657,23.595 L -105.171,23.455 L -105.686,23.33 L -106.2,23.22 L -106.714,23.124 L -107.229,23.044 L -107.743,22.978 L -108.257,22.926 L -108.771,22.889 L -109.286,22.867 L -109.8,22.86 L -127.8,22.86 L -127.8,22.86 L -127.109,23.58 L -126.446,24.3 L -125.813,25.02 L -125.208,25.74 L -124.632,26.46 L -124.085,27.18 L -123.566,27.9 L -123.077,28.62 L -122.616,29.34 L -122.184,30.06 L -121.781,30.78 L -121.406,31.5 L -121.061,32.22 L -120.744,32.94 L -120.456,33.66 L -120.197,34.38 L -119.966,35.1 L -119.765,35.82 L -119.592,36.54 L -119.448,37.26 L -119.333,37.98 L -119.246,38.7 L -119.189,39.42 L -119.16,40.14 L -119.16,40.86 L -119.189,41.58 L -119.246,42.3 L -119.333,43.02 L -119.448,43.74 L -119.592,44.46 L -119.765,45.18 L -119.966,45.9 L -120.197,46.62 L -120.456,47.34 L -120.744,48.06 L -121.061,48.78 L -121.406,49.5 L -121.781,50.22 L -122.184,50.94 L -122.616,51.66 L -123.077,52.38 L -123.566,53.1 L -124.085,53.82 L -124.632,54.54 L -125.208,55.26 L -125.813,55.98 L -126.446,56.7 L -127.109,57.42 L -127.8,58.14" style="stroke:black;fill:none;stroke-width:2.0;stroke-dasharray:-;stroke-linecap:round;stroke-linejoin:round;" /><path d="M -133.20000000000002,58.14000000000001 L -132.509,57.42 L -131.846,56.7 L -131.213,55.98 L -130.608,55.26 L -130.032,54.54 L -129.485,53.82 L -128.966,53.1 L -128.477,52.38 L -128.016,51.66 L -127.584,50.94 L -127.181,50.22 L -126.806,49.5 L -126.461,48.78 L -126.144,48.06 L -125.856,47.34 L -125.597,46.62 L -125.366,45.9 L -125.165,45.18 L -124.992,44.46 L -124.848,43.74 L -124.733,43.02 L -124.646,42.3 L -124.589,41.58 L -124.56,40.86 L -124.56,40.14 L -124.589,39.42 L -124.646,38.7 L -124.733,37.98 L -124.848,37.26 L -124.992,36.54 L -125.165,35.82 L -125.366,35.1 L -125.597,34.38 L -125.856,33.66 L -126.144,32.94 L -126.461,32.22 L -126.806,31.5 L -127.181,30.78 L -127.584,30.06 L -128.016,29.34 L -128.477,28.62 L -128.966,27.9 L -129.485,27.18 L -130.032,26.46 L -130.608,25.74 L -131.213,25.02 L -131.846,24.3 L -132.509,23.58 L -133.2,22.86" style="stroke:black;fill:none;stroke-width:2.0;stroke-dasharray:-;stroke-linecap:round;stroke-linejoin:round;" /><path d="M -140.4,49.5 L -126.806,49.5" style="stroke:black;fill:none;stroke-width:2.0;stroke-dasharray:-;stroke-linecap:round;stroke-linejoin:round;" /><path d="M -140.4,31.5 L -126.806,31.5" style="stroke:black;fill:none;stroke-width:2.0;stroke-dasharray:-;stroke-linecap:round;stroke-linejoin:round;" /><path d="M -84.60000000000001,40.5 L -72,40.5" style="stroke:black;fill:none;stroke-width:2.0;stroke-dasharray:-;stroke-linecap:round;stroke-linejoin:round;" /><path d="M -66.60000000000001,29.25 L -72,29.25 L -72,40.5" style="stroke:black;fill:none;stroke-width:2.0;stroke-dasharray:-;stroke-linecap:round;stroke-linejoin:round;" /><path d="M -66.60000000000001,29.25 L -72,29.25 L -72,40.5" style="stroke:black;fill:none;stroke-width:2.0;stroke-dasharray:-;stroke-linecap:round;stroke-linejoin:round;" /><text x="-147.6" y="-14.0" dominant-baseline="central" fill="black" font-size="14.0" font-family="sans" text-anchor="end"><tspan x="-147.6" dy="14.0">V2</tspan></text><text x="-147.6" y="-14.0" dominant-baseline="central" fill="black" font-size="14.0" font-family="sans" text-anchor="end"><tspan x="-147.6" dy="14.0">V2</tspan></text><text x="-144.0" y="17.5" dominant-baseline="central" fill="black" font-size="14.0" font-family="sans" text-anchor="end"><tspan x="-144.0" dy="14.0">V2</tspan></text><text x="-144.0" y="35.5" dominant-baseline="central" fill="black" font-size="14.0" font-family="sans" text-anchor="end"><tspan x="-144.0" dy="14.0">V3</tspan></text><text x="-144.0" y="17.5" dominant-baseline="central" fill="black" font-size="14.0" font-family="sans" text-anchor="end"><tspan x="-144.0" dy="14.0">V2</tspan></text><text x="-144.0" y="35.5" dominant-baseline="central" fill="black" font-size="14.0" font-family="sans" text-anchor="end"><tspan x="-144.0" dy="14.0">V3</tspan></text></svg>