<svg xmlns="http://www.w3.org/2000/svg" xmlns:xlink="http://www.w3.org/1999/xlink" xml:lang="en" height="98.48000000000002pt" width="246.188pt" viewBox="-241.58799999999997 -8.740000000000004 246.188 98.48000000000002"><circle cx="-168.3" cy="54" r="4.32" style="stroke:black;fill:none;stroke-width:2.0;stroke-dasharray:-;" /><path d="M -30.6,58.5 L -29.447,58.463 L -28.298,58.352 L -27.159,58.168 L -26.034,57.911 L -24.928,57.583 L -23.845,57.185 L -22.79,56.717 L -21.767,56.184 L -20.78,55.586 L -19.834,54.925 L -18.932,54.206 L -18.078,53.43 L -17.275,52.601 L -16.527,51.723 L -15.837,50.798 L -15.207,49.831 L -14.641,48.826 L -14.141,47.786 L -13.708,46.717 L -13.344,45.621 L -13.051,44.505 L -12.831,43.373 L -12.683,42.228 L -12.609,41.077 L -12.609,39.923 L -12.683,38.772 L -12.831,37.627 L -13.051,36.495 L -13.344,35.379 L -13.708,34.283 L -14.141,33.214 L -14.641,32.174 L -15.207,31.169 L -15.837,30.202 L -16.527,29.277 L -17.275,28.399 L -18.078,27.57 L -18.932,26.794 L -19.834,26.075 L -20.78,25.414 L -21.767,24.816 L -22.79,24.283 L -23.845,23.815 L -24.928,23.417 L -26.034,23.089 L -27.159,22.832 L -28.298,22.648 L -29.447,22.537 L -30.6,22.5 L -30.6,22.5 L -54,22.5 L -54,40.5 L -54,58.5 L -30.6,58.5" style="stroke:black;fill:none;stroke-width:2.0;stroke-dasharray:-;stroke-linecap:round;stroke-linejoin:round;" /><path d="M -66.60000000000001,49.5 L -54,49.5" style="stroke:black;fill:none;stroke-width:2.0;stroke-dasharray:-;stroke-linecap:round;stroke-linejoin:round;" /><path d="M -66.60000000000001,31.5 L -54,31.5" style="stroke:black;fill:none;stroke-width:2.0;stroke-dasharray:-;stroke-linecap:round;stroke-linejoin:round;" /><path d="M -12.600000000000003,40.5 L 0,40.5" style="stroke:black;fill:none;stroke-width:2.0;stroke-dasharray:-;stroke-linecap:round;stroke-linejoin:round;" /><path d="M -127.80000000000001,31.140000000000004 L -109.8,31.14 L -109.286,31.133 L -108.771,31.111 L -108.257,31.074 L -107.743,31.022 L -107.229,30.956 L -106.714,30.876 L -106.2,30.78 L -105.686,30.67 L -105.171,30.545 L -104.657,30.405 L -104.143,30.251 L -103.629,30.082 L -103.114,29.898 L -102.6,29.7 L -102.086,29.487 L -101.571,29.259 L -101.057,29.017 L -100.543,28.76 L -100.029,28.488 L -99.514,28.201 L -99,27.9 L -98.486,27.584 L -97.971,27.253 L -97.457,26.908 L -96.943,26.548 L -96.429,26.173 L -95.914,25.784 L -95.4,25.38 L -94.886,24.961 L -94.371,24.528 L -93.857,24.08 L -93.343,23.617 L -92.829,23.139 L -92.314,22.647 L -91.8,22.14 L -91.286,21.618 L -90.771,21.082 L -90.257,20.531 L -89.743,19.965 L -89.229,19.385 L -88.714,18.79 L -88.2,18.18 L -87.686,17.556 L -87.171,16.916 L -86.657,16.262 L -86.143,15.594 L -85.629,14.911 L -85.114,14.213 L -84.6,13.5 L -84.6,13.5 L -85.114,12.787 L -85.629,12.089 L -86.143,11.406 L -86.657,10.738 L -87.171,10.084 L -87.686,9.444 L -88.2,8.82 L -88.714,8.21 L -89.229,7.615 L -89.743,7.035 L -90.257,6.469 L -90.771,5.918 L -91.286,5.382 L -91.8,4.86 L -92.314,4.353 L -92.829,3.861 L -93.343,3.383 L -93.857,2.92 L -94.371,2.472 L -94.886,2.039 L -95.4,1.62 L -95.914,1.216 L -96.429,0.827 L -96.943,0.452 L -97.457,0.092 L -97.971,-0.253 L -98.486,-0.584 L -99,-0.9 L -99.514,-1.201 L -100.029,-1.488 L -100.543,-1.76 L -101.057,-2.017 L -101.571,-2.259 L -102.086,-2.487 L -102.6,-2.7 L -103.114,-2.898 L -103.629,-3.082 L -104.143,-3.251 L -104.657,-3.405 L -105.171,-3.545 L -105.686,-3.67 L -106.2,-3.78 L -106.714,-3.876 L -107.229,-3.956 L -107.743,-4.022 L -108.257,-4.074 L -108.771,-4.111 L -109.286,-4.133 L -109.8,-4.14 L -127.8,-4.14 L -127.8,-4.14 L -127.109,-3.42 L -126.446,-2.7 L -125.813,-1.98 L -125.208,-1.26 L -124.632,-0.54 L -124.085,0.18 L -123.566,0.9 L -123.077,1.62 L -122.616,2.34 L -122.184,3.06 L -121.781,3.78 L -121.406,4.5 L -121.061,5.22 L -120.744,5.94 L -120.456,6.66 L -120.197,7.38 L -119.966,8.1 L -119.765,8.82 L -119.592,9.54 L -119.448,10.26 L -119.333,10.98 L -119.246,11.7 L -119.189,12.42 L -119.16,13.14 L -119.16,13.86 L -119.189,14.58 L -119.246,15.3 L -119.333,16.02 L -119.448,16.74 L -119.592,17.46 L -119.765,18.18 L -119.966,18.9 L -120.197,19.62 L -120.456,20.34 L -120.744,21.06 L -121.061,21.78 L -121.406,22.5 L -121.781,23.22 L -122.184,23.94 L -122.616,24.66 L -123.077,25.38 L -123.566,26.1 L -124.085,26.82 L -124.632,27.54 L -125.208,28.26 L -125.813,28.98 L -126.446,29.7 L -127.109,30.42 L -127.8,31.14" style="stroke:black;fill:none;stroke-width:2.0;stroke-dasharray:-;stroke-linecap:round;stroke-linejoin:round;" /><path d="M -140.4,22.5 L -121.406,22.5" style="stroke:black;fill:none;stroke-width:2.0;stroke-dasharray:-;stroke-linecap:round;stroke-linejoin:round;" /><path d="M -140.4,4.5 L -121.406,4.5" style="stroke:black;fill:none;stroke-width:2.0;stroke-dasharray:-;stroke-linecap:round;stroke-linejoin:round;" /><path d="M -84.60000000000001,13.5 L -72,13.5" style="stroke:black;fill:none;stroke-width:2.0;stroke-dasharray:-;stroke-linecap:round;stroke-linejoin:round;" /><path d="M -66.60000000000001,31.5 L -72,31.5 L -72,13.5" style="stroke:black;fill:none;stroke-width:2.0;stroke-dasharray:-;stroke-linecap:round;stroke-linejoin:round;" /><path d="M -66.60000000000001,31.5 L -72,31.5 L -72,13.5" style="stroke:black;fill:none;stroke-width:2.0;stroke-dasharray:-;stroke-linecap:round;stroke-linejoin:round;" /><path d="M -127.80000000000001,85.14000000000001 L -109.8,85.14 L -109.286,85.133 L -108.771,85.111 L -108.257,85.074 L -107.743,85.022 L -107.229,84.956 L -106.714,84.876 L -106.2,84.78 L -105.686,84.67 L -105.171,84.545 L -104.657,84.405 L -104.143,84.251 L -103.629,84.082 L -103.114,83.898 L -102.6,83.7 L -102.086,83.487 L -101.571,83.259 L -101.057,83.017 L -100.543,82.76 L -100.029,82.488 L -99.514,82.201 L -99,81.9 L -98.486,81.584 L -97.971,81.253 L -97.457,80.908 L -96.943,80.548 L -96.429,80.173 L -95.914,79.784 L -95.4,79.38 L -94.886,78.961 L -94.371,78.528 L -93.857,78.08 L -93.343,77.617 L -92.829,77.139 L -92.314,76.647 L -91.8,76.14 L -91.286,75.618 L -90.771,75.082 L -90.257,74.531 L -89.743,73.965 L -89.229,73.385 L -88.714,72.79 L -88.2,72.18 L -87.686,71.556 L -87.171,70.916 L -86.657,70.262 L -86.143,69.594 L -85.629,68.911 L -85.114,68.213 L -84.6,67.5 L -84.6,67.5 L -85.114,66.787 L -85.629,66.089 L -86.143,65.406 L -86.657,64.738 L -87.171,64.084 L -87.686,63.444 L -88.2,62.82 L -88.714,62.21 L -89.229,61.615 L -89.743,61.035 L -90.257,60.469 L -90.771,59.918 L -91.286,59.382 L -91.8,58.86 L -92.314,58.353 L -92.829,57.861 L -93.343,57.383 L -93.857,56.92 L -94.371,56.472 L -94.886,56.039 L -95.4,55.62 L -95.914,55.216 L -96.429,54.827 L -96.943,54.452 L -97.457,54.092 L -97.971,53.747 L -98.486,53.416 L -99,53.1 L -99.514,52.799 L -100.029,52.512 L -100.543,52.24 L -101.057,51.983 L -101.571,51.741 L -102.086,51.513 L -102.6,51.3 L -103.114,51.102 L -103.629,50.918 L -104.143,50.749 L -104.657,50.595 L -105.171,50.455 L -105.686,50.33 L -106.2,50.22 L -106.714,50.124 L -107.229,50.044 L -107.743,49.978 L -108.257,49.926 L -108.771,49.889 L -109.286,49.867 L -109.8,49.86 L -127.8,49.86 L -127.8,49.86 L -127.109,50.58 L -126.446,51.3 L -125.813,52.02 L -125.208,52.74 L -124.632,53.46 L -124.085,54.18 L -123.566,54.9 L -123.077,55.62 L -122.616,56.34 L -122.184,57.06 L -121.781,57.78 L -121.406,58.5 L -121.061,59.22 L -120.744,59.94 L -120.456,60.66 L -120.197,61.38 L -119.966,62.1 L -119.765,62.82 L -119.592,63.54 L -119.448,64.26 L -119.333,64.98 L -119.246,65.7 L -119.189,66.42 L -119.16,67.14 L -119.16,67.86 L -119.189,68.58 L -119.246,69.3 L -119.333,70.02 L -119.448,70.74 L -119.592,71.46 L -119.765,72.18 L -119.966,72.9 L -120.197,73.62 L -120.456,74.34 L -120.744,75.06 L -121.061,75.78 L -121.406,76.5 L -121.781,77.22 L -122.184,77.94 L -122.616,78.66 L -123.077,79.38 L -123.566,80.1 L -124.085,80.82 L -124.632,81.54 L -125.208,82.26 L -125.813,82.98 L -126.446,83.7 L -127.109,84.42 L -127.8,85.14" style="stroke:black;fill:none;stroke-width:2.0;stroke-dasharray:-;stroke-linecap:round;stroke-linejoin:round;" /><path d="M -133.20000000000002,85.14000000000001 L -132.509,84.42 L -131.846,83.7 L -131.213,82.98 L -130.608,82.26 L -130.032,81.54 L -129.485,80.82 L -128.966,80.1 L -128.477,79.38 L -128.016,78.66 L -127.584,77.94 L -127.181,77.22 L -126.806,76.5 L -126.461,75.78 L -126.144,75.06 L -125.856,74.34 L -125.597,73.62 L -125.366,72.9 L -125.165,72.18 L -124.992,71.46 L -124.848,70.74 L -124.733,70.02 L -124.646,69.3 L -124.589,68.58 L -124.56,67.86 L -124.56,67.14 L -124.589,66.42 L -124.646,65.7 L -124.733,64.98 L -124.848,64.26 L -124.992,63.54 L -125.165,62.82 L -125.366,62.1 L -125.597,61.38 L -125.856,60.66 L -126.144,59.94 L -126.461,59.22 L -126.806,58.5 L -127.181,57.78 L -127.584,57.06 L -128.016,56.34 L -128.477,55.62 L -128.966,54.9 L -129.485,54.18 L -130.032,53.46 L -130.608,52.74 L -131.213,52.02 L -131.846,51.3 L -132.509,50.58 L -133.2,49.86" style="stroke:black;fill:none;stroke-width:2.0;stroke-dasharray:-;stroke-linecap:round;stroke-linejoin:round;" /><path d="M -140.4,76.5 L -126.806,76.5" style="stroke:black;fill:none;stroke-width:2.0;stroke-dasharray:-;stroke-linecap:round;stroke-linejoin:round;" /><path d="M -140.4,58.5 L -126.806,58.5" style="stroke:black;fill:none;stroke-width:2.0;stroke-dasharray:-;stroke-linecap:round;stroke-linejoin:round;" /><path d="M -84.60000000000001,67.5 L -72,67.5" style="stroke:black;fill:none;stroke-width:2.0;stroke-dasharray:-;stroke-linecap:round;stroke-linejoin:round;" /><path d="M -216.0,54.0 L -216,54 L -196.02,54 M -163.98,54 L -144,54 L -144,54" style="stroke:black;fill:none;stroke-width:2.0;stroke-dasharray:-;stroke-linecap:round;stroke-linejoin:round;" /><path d="M -196.02,36.0 L -172.62,54 L -196.02,72 L -196.02,36" style="stroke:black;fill:none;stroke-width:2.0;stroke-dasharray:-;stroke-linecap:round;stroke-linejoin:round;" /><path d="M -140.4,58.5 L -144,58.5 L -144,54" style="stroke:black;fill:none;stroke-width:2.0;stroke-dasharray:-;stroke-linecap:round;stroke-linejoin:round;" /><path d="M -140.4,58.5 L -144,58.5 L -144,54" style="stroke:black;fill:none;stroke-width:2.0;stroke-dasharray:-;stroke-linecap:round;stroke-linejoin:round;" /><path d="M -66.60000000000001,49.5 L -72,49.5 L -72,67.5" style="stroke:black;fill:none;stroke-width:2.0;stroke-dasharray:-;stroke-linecap:round;stroke-linejoin:round;" /><path d="M -66.60000000000001,49.5 L -72,49.5 L -72,67.5" style="stroke:black;fill:none;stroke-width:2.0;stroke-dasharray:-;stroke-linecap:round;stroke-linejoin:round;" /><text x="-144.0" y="-9.5" dominant-baseline="central" fill="black" font-size="14.0" font-family="sans" text-anchor="end"><tspan x="-144.0" dy="14.0">V1</tspan></text><text x="-144.0" y="8.5" dominant-baseline="central" fill="black" font-size="14.0" font-family="sans" text-anchor="end"><tspan x="-144.0" dy="14.0">V3</tspan></text><text x="-144.0" y="-9.5" dominant-baseline="central" fill="black" font-size="14.0" font-family="sans" text-anchor="end"><tspan x="-144.0" dy="14.0">V1</tspan></text><text x="-144.0" y="8.5" dominant-baseline="central" fill="black" font-size="14.0" font-family="sans" text-anchor="end"><tspan x="-144.0" dy="14.0">V3</tspan></text><text x="-144.0" y="62.5" dominant-baseline="central" fill="black" font-size="14.0" font-family="sans" text-anchor="end"><tspan x="-144.0" dy="14.0">V2</tspan></text><text x="-144.0" y="62.5" dominant-baseline="central" fill="black" font-size="14.0" font-family="sans" text-anchor="end"><tspan x="-144.0" dy="14.0">V2</tspan></text><text x="-219.6" y="40.0" dominant-baseline="central" fill="black" font-size="14.0" font-family="sans" text-anchor="end"><tspan x="-219.6" dy="14.0">V0</tspan></text><text x="-219.6" y="40.0" dominant-baseline="central" fill="black" font-size="14.0" font-family="sans" text-anchor="end"><tspan x="-219.6" dy="14.0">V0</tspan></text></svg>